<svg width="609" height="609" viewBox="0 0 609 609" fill="none" xmlns="http://www.w3.org/2000/svg">
<mask id="mask0_0_22" style="mask-type:alpha" maskUnits="userSpaceOnUse" x="0" y="0" width="609" height="609">
<circle cx="304.697" cy="304.079" r="304.079" fill="#C5C4FF"/>
</mask>
<g mask="url(#mask0_0_22)">
<circle cx="304.697" cy="304.079" r="304.079" fill="#D4DFFF"/>
<g opacity="0.9" filter="url(#filter0_f_0_22)">
<ellipse cx="411.703" cy="180.763" rx="260.943" ry="150.693" transform="rotate(40.0768 411.703 180.763)" fill="#E8C6F8"/>
</g>
<g opacity="0.9" filter="url(#filter1_f_0_22)">
<path d="M562.636 473.696C500.124 547.992 457.955 360.913 329.303 252.667C200.651 144.421 36.9759 139.751 99.4875 65.4551C161.999 -8.84081 380.07 -42.7909 508.722 65.4552C637.374 173.701 625.147 399.4 562.636 473.696Z" fill="#A3C0FB"/>
</g>
<g opacity="0.9" filter="url(#filter2_f_0_22)">
<ellipse cx="407.181" cy="170.886" rx="265.013" ry="153.043" transform="rotate(40.0768 407.181 170.886)" fill="#A3B6F9"/>
</g>
<g opacity="0.9" filter="url(#filter3_f_0_22)">
<ellipse cx="425.425" cy="149.203" rx="215.944" ry="124.707" transform="rotate(40.0768 425.425 149.203)" fill="#F4F7FF"/>
</g>
<g opacity="0.9" filter="url(#filter4_f_0_22)">
<ellipse cx="196.168" cy="453.848" rx="160.939" ry="207.77" transform="rotate(-45.1708 196.168 453.848)" fill="#FAE8FA"/>
</g>
<g opacity="0.9" filter="url(#filter5_f_0_22)">
<ellipse cx="206.909" cy="443.875" rx="214.91" ry="242.98" transform="rotate(-18.0806 206.909 443.875)" fill="#FAE8FA"/>
</g>
<g opacity="0.9" filter="url(#filter6_f_0_22)">
<ellipse cx="163.644" cy="492.006" rx="169.579" ry="127.627" transform="rotate(-7.8963 163.644 492.006)" fill="white"/>
</g>
<g opacity="0.9" filter="url(#filter7_f_0_22)">
<path d="M296.382 21.8257C328.837 48.0764 244.613 100.277 179.698 180.535C114.783 260.793 57.4652 331.072 25.0101 304.822C-7.44508 278.571 21.7916 191.05 86.7068 110.792C151.622 30.5338 263.927 -4.42493 296.382 21.8257Z" fill="#B489FA"/>
</g>
<g opacity="0.9" filter="url(#filter8_f_0_22)">
<path d="M212.871 101.966C223.959 113.622 175.478 142.366 131.557 184.145C87.6353 225.923 48.9502 262.525 37.8625 250.868C26.7749 239.212 54.9706 195.208 98.8921 153.429C142.814 111.65 201.783 90.3092 212.871 101.966Z" fill="#AF97F8"/>
</g>
<g opacity="0.5" filter="url(#filter9_f_0_22)">
<path d="M285.063 -11.8694C307.915 8.51163 221.894 68.9696 146.705 153.272C71.5172 237.575 5.25888 311.459 -17.5927 291.078C-40.4444 270.697 4.82721 184.332 80.0154 100.03C155.204 15.7272 262.211 -32.2504 285.063 -11.8694Z" fill="#A39AF8"/>
</g>
<g opacity="0.9" filter="url(#filter10_f_0_22)">
<path d="M206.063 20.7026C218.069 31.4106 165.044 71.9543 116.901 125.933C68.7574 179.912 26.3552 227.241 14.3492 216.533C2.34313 205.825 33.363 152.339 81.5061 98.3595C129.649 44.3804 194.057 9.99459 206.063 20.7026Z" fill="#BA69FC"/>
</g>
<g opacity="0.9" filter="url(#filter11_f_0_22)">
<path d="M265.753 69.0003C294.147 99.0227 221.458 123.272 165.764 175.945C110.07 228.619 60.8888 274.63 32.4947 244.607C-20.975 196.453 28.7593 147.243 84.4534 94.5695C140.147 41.8962 221.343 12.7646 265.753 69.0003Z" fill="#A495F8"/>
</g>
<g opacity="0.9" filter="url(#filter12_f_0_22)">
<path d="M219.383 91.3153C245.586 104.864 193.883 154.609 159.453 221.194C125.024 287.778 94.5442 346.156 68.3414 332.607C20.2728 314.092 50.6875 252.818 85.117 186.234C119.546 119.649 176.989 62.3756 219.383 91.3153Z" fill="#D5B6F9"/>
</g>
<g opacity="0.9" filter="url(#filter13_f_0_22)">
<path d="M376.909 76.3802C405.07 106.156 318.312 144.077 246.893 211.622C175.475 279.167 112.481 338.245 84.3201 308.469C56.1591 278.693 94.1649 199.089 165.584 131.544C237.002 63.9993 348.748 46.6042 376.909 76.3802Z" fill="url(#paint0_linear_0_22)"/>
</g>
<g opacity="0.5" filter="url(#filter14_f_0_22)">
<path d="M215.149 25.4555C230.049 38.7439 173.963 78.1626 124.94 133.128C75.9174 188.093 32.7169 236.266 17.8176 222.977C2.91833 209.689 32.4354 153.379 81.4582 98.4139C130.481 43.4485 200.25 12.1671 215.149 25.4555Z" fill="#BA69FC"/>
</g>
<g opacity="0.9" filter="url(#filter15_f_0_22)">
<path d="M555.178 277.259C517.862 321.609 446.969 263.674 370.171 199.058C293.373 134.441 239.753 87.6118 277.069 43.2615C314.384 -1.08878 406.892 15.3402 483.689 79.9568C560.487 144.573 592.494 232.908 555.178 277.259Z" fill="#B5FBF7"/>
</g>
<g opacity="0.9" filter="url(#filter16_f_0_22)">
<ellipse cx="444.458" cy="160.528" rx="128.639" ry="74.2881" transform="rotate(40.0768 444.458 160.528)" fill="#B5FBF7"/>
</g>
<g opacity="0.9" filter="url(#filter17_f_0_22)">
<path d="M558.156 247.496C537.194 267.894 458.863 265.721 397.414 202.573C335.964 139.426 286.37 67.8556 307.332 47.4575C328.293 27.0594 423.395 33.0758 484.845 96.2234C546.295 159.371 579.117 227.098 558.156 247.496Z" fill="#B5FBF7"/>
</g>
<g opacity="0.9" filter="url(#filter18_f_0_22)">
<path d="M469.838 333.685C439.206 363.494 422.392 257.811 360.942 194.664C299.492 131.516 158.433 150.038 189.066 120.229C275.694 25.047 376.438 50.6235 437.888 113.771C499.338 176.919 500.471 303.876 469.838 333.685Z" fill="#B5FBF7"/>
</g>
<g opacity="0.9" filter="url(#filter19_f_0_22)">
<path d="M449.686 311.508C435.772 325.048 370.603 310.067 309.153 246.919C247.703 183.772 194.647 115.571 208.561 102.032C222.475 88.4917 302.165 109.506 363.615 172.653C425.065 235.801 463.6 297.969 449.686 311.508Z" fill="#A2C8FB"/>
</g>
<g opacity="0.3" filter="url(#filter20_f_0_22)">
<path d="M312.816 596.887C312.816 588.538 449.895 557.112 517.586 483.076C585.276 409.041 586.575 299.838 596.682 299.838C611.416 313.309 595.824 418.269 528.133 492.304C460.443 566.339 327.55 610.358 312.816 596.887Z" fill="#BA69FC"/>
</g>
<g filter="url(#filter21_f_0_22)">
<path d="M-0.822973 227.628C11.6207 226.702 6.29766 406.474 97.2084 499.978C188.119 593.482 372.419 597.41 369.517 612.598C345.208 636.233 166.868 625.849 75.9569 532.346C-14.9539 438.842 -25.1318 251.263 -0.822973 227.628Z" fill="url(#paint1_linear_0_22)"/>
</g>
<g opacity="0.5" filter="url(#filter22_f_0_22)">
<path d="M74.4328 500.41C81.2706 493.951 184.263 585.065 293.426 587.261C402.588 589.458 514.28 502.481 521.526 511.362C521.056 534.73 409.089 615.653 299.926 613.456C190.764 611.26 73.9626 523.779 74.4328 500.41Z" fill="#9F9DE2"/>
</g>
<g opacity="0.2" filter="url(#filter23_f_0_22)">
<path d="M319.407 601.72C351.334 598.833 460.819 565.907 528.51 491.872C596.2 417.836 598.223 339.037 596.737 299.888C612.635 314.423 600.499 422.544 532.809 496.579C465.118 570.615 335.305 616.256 319.407 601.72Z" fill="#BA69FC"/>
</g>
<g opacity="0.5" filter="url(#filter24_f_0_22)">
<path d="M581.016 370.412C550.004 397.325 530.452 278.013 466.181 187.75C401.91 97.4875 305.488 62.435 336.5 35.5226C367.512 8.61031 461.048 41.4347 525.319 131.697C589.59 221.96 612.028 343.5 581.016 370.412Z" fill="white"/>
</g>
<g opacity="0.3" filter="url(#filter25_f_0_22)">
<path d="M547.793 439.964C514.808 468.588 517.448 329.45 492.797 260.839C466.3 187.087 373.068 113.512 415.746 76.476C448.731 47.8514 523.164 91.941 570.546 253.546C575.819 312.428 580.778 411.339 547.793 439.964Z" fill="white"/>
</g>
<g opacity="0.8" filter="url(#filter26_f_0_22)">
<path d="M567.961 373.057C535.686 397.619 523.978 278.773 466.348 185.725C408.718 92.678 284.724 68.0642 316.999 43.5026C349.273 18.9411 470.565 41.1757 528.194 134.223C585.824 227.271 600.236 348.496 567.961 373.057Z" fill="url(#paint2_linear_0_22)"/>
</g>
<g filter="url(#filter27_f_0_22)">
<path d="M568.35 322.974C542.878 345.079 550.744 239.483 497.164 173.132C412.355 68.1102 290.21 55.0611 315.682 32.9565C341.154 10.852 475.178 61.2778 524.934 131.155C574.689 201.031 593.821 300.87 568.35 322.974Z" fill="url(#paint3_linear_0_22)"/>
</g>
<g filter="url(#filter28_f_0_22)">
<path d="M560.439 278.593C534.967 300.698 550.743 239.483 497.162 173.132C412.354 68.1102 367.108 99.8821 392.579 77.7775C418.051 55.6729 475.177 61.2778 524.932 131.155C574.688 201.031 585.911 256.488 560.439 278.593Z" fill="url(#paint4_linear_0_22)"/>
</g>
<g opacity="0.5" filter="url(#filter29_f_0_22)">
<circle cx="304.697" cy="304.079" r="303.079" stroke="url(#paint5_linear_0_22)" stroke-width="2"/>
</g>
<g opacity="0.5" filter="url(#filter30_f_0_22)">
<path d="M623.717 304.079C623.717 480.269 480.887 623.099 304.697 623.099C128.508 623.099 -14.3223 480.269 -14.3223 304.079C-14.3223 127.89 128.508 -14.9403 304.697 -14.9403C480.887 -14.9403 623.717 127.89 623.717 304.079ZM15.5558 304.079C15.5558 463.768 145.009 593.221 304.697 593.221C464.386 593.221 593.839 463.768 593.839 304.079C593.839 144.391 464.386 14.9378 304.697 14.9378C145.009 14.9378 15.5558 144.391 15.5558 304.079Z" fill="url(#paint6_radial_0_22)"/>
</g>
<g opacity="0.5" filter="url(#filter31_f_0_22)">
<path d="M623.717 304.079C623.717 480.269 480.887 623.099 304.697 623.099C128.508 623.099 -14.3223 480.269 -14.3223 304.079C-14.3223 127.89 128.508 -14.9403 304.697 -14.9403C480.887 -14.9403 623.717 127.89 623.717 304.079ZM6.04498 304.079C6.04498 469.021 139.756 602.732 304.697 602.732C469.639 602.732 603.35 469.021 603.35 304.079C603.35 139.138 469.639 5.42694 304.697 5.42694C139.756 5.42694 6.04498 139.138 6.04498 304.079Z" fill="url(#paint7_linear_0_22)"/>
</g>
<g opacity="0.5" filter="url(#filter32_f_0_22)">
<path d="M-3.61662 255.331C6.75026 255.946 5.07716 423.386 92.091 512.881C179.105 602.377 338.226 601.294 337.492 613.844C319.694 631.147 165.5 616.896 78.4863 527.4C-8.5275 437.905 -21.4139 272.635 -3.61662 255.331Z" fill="url(#paint8_linear_0_22)"/>
</g>
<g opacity="0.5" filter="url(#filter33_f_0_22)">
<path d="M621.959 304.079C621.959 480.269 479.129 623.099 302.94 623.099C126.75 623.099 -16.0801 480.269 -16.0801 304.079C-16.0801 127.89 126.75 -14.9403 302.94 -14.9403C479.129 -14.9403 621.959 127.89 621.959 304.079ZM0.959686 304.079C0.959686 470.858 136.161 606.059 302.94 606.059C469.719 606.059 604.92 470.858 604.92 304.079C604.92 137.3 469.719 2.09946 302.94 2.09946C136.161 2.09946 0.959686 137.3 0.959686 304.079Z" fill="white"/>
</g>
</g>
<defs>
<filter id="filter0_f_0_22" x="-10.3386" y="-223.019" width="844.084" height="807.564" filterUnits="userSpaceOnUse" color-interpolation-filters="sRGB">
<feFlood flood-opacity="0" result="BackgroundImageFix"/>
<feBlend mode="normal" in="SourceGraphic" in2="BackgroundImageFix" result="shape"/>
<feGaussianBlur stdDeviation="100" result="effect1_foregroundBlur_0_22"/>
</filter>
<filter id="filter1_f_0_22" x="-114.258" y="-203.58" width="922.491" height="894.26" filterUnits="userSpaceOnUse" color-interpolation-filters="sRGB">
<feFlood flood-opacity="0" result="BackgroundImageFix"/>
<feBlend mode="normal" in="SourceGraphic" in2="BackgroundImageFix" result="shape"/>
<feGaussianBlur stdDeviation="100" result="effect1_foregroundBlur_0_22"/>
</filter>
<filter id="filter2_f_0_22" x="-18.3238" y="-236.074" width="851.01" height="813.921" filterUnits="userSpaceOnUse" color-interpolation-filters="sRGB">
<feFlood flood-opacity="0" result="BackgroundImageFix"/>
<feBlend mode="normal" in="SourceGraphic" in2="BackgroundImageFix" result="shape"/>
<feGaussianBlur stdDeviation="100" result="effect1_foregroundBlur_0_22"/>
</filter>
<filter id="filter3_f_0_22" x="41.6738" y="-219.437" width="767.503" height="737.281" filterUnits="userSpaceOnUse" color-interpolation-filters="sRGB">
<feFlood flood-opacity="0" result="BackgroundImageFix"/>
<feBlend mode="normal" in="SourceGraphic" in2="BackgroundImageFix" result="shape"/>
<feGaussianBlur stdDeviation="100" result="effect1_foregroundBlur_0_22"/>
</filter>
<filter id="filter4_f_0_22" x="-89.8155" y="168.143" width="571.967" height="571.411" filterUnits="userSpaceOnUse" color-interpolation-filters="sRGB">
<feFlood flood-opacity="0" result="BackgroundImageFix"/>
<feBlend mode="normal" in="SourceGraphic" in2="BackgroundImageFix" result="shape"/>
<feGaussianBlur stdDeviation="50" result="effect1_foregroundBlur_0_22"/>
</filter>
<filter id="filter5_f_0_22" x="-210.921" y="3.39316" width="835.661" height="880.963" filterUnits="userSpaceOnUse" color-interpolation-filters="sRGB">
<feFlood flood-opacity="0" result="BackgroundImageFix"/>
<feBlend mode="normal" in="SourceGraphic" in2="BackgroundImageFix" result="shape"/>
<feGaussianBlur stdDeviation="100" result="effect1_foregroundBlur_0_22"/>
</filter>
<filter id="filter6_f_0_22" x="-55.2539" y="313.437" width="437.795" height="357.137" filterUnits="userSpaceOnUse" color-interpolation-filters="sRGB">
<feFlood flood-opacity="0" result="BackgroundImageFix"/>
<feBlend mode="normal" in="SourceGraphic" in2="BackgroundImageFix" result="shape"/>
<feGaussianBlur stdDeviation="25" result="effect1_foregroundBlur_0_22"/>
</filter>
<filter id="filter7_f_0_22" x="-108.313" y="-106.782" width="531.886" height="537.198" filterUnits="userSpaceOnUse" color-interpolation-filters="sRGB">
<feFlood flood-opacity="0" result="BackgroundImageFix"/>
<feBlend mode="normal" in="SourceGraphic" in2="BackgroundImageFix" result="shape"/>
<feGaussianBlur stdDeviation="60" result="effect1_foregroundBlur_0_22"/>
</filter>
<filter id="filter8_f_0_22" x="5.44461" y="68.8044" width="239.03" height="214.259" filterUnits="userSpaceOnUse" color-interpolation-filters="sRGB">
<feFlood flood-opacity="0" result="BackgroundImageFix"/>
<feBlend mode="normal" in="SourceGraphic" in2="BackgroundImageFix" result="shape"/>
<feGaussianBlur stdDeviation="15" result="effect1_foregroundBlur_0_22"/>
</filter>
<filter id="filter9_f_0_22" x="-63.5362" y="-56.5389" width="392.348" height="391.036" filterUnits="userSpaceOnUse" color-interpolation-filters="sRGB">
<feFlood flood-opacity="0" result="BackgroundImageFix"/>
<feBlend mode="normal" in="SourceGraphic" in2="BackgroundImageFix" result="shape"/>
<feGaussianBlur stdDeviation="20" result="effect1_foregroundBlur_0_22"/>
</filter>
<filter id="filter10_f_0_22" x="-88.2387" y="-81.2494" width="396.023" height="399.307" filterUnits="userSpaceOnUse" color-interpolation-filters="sRGB">
<feFlood flood-opacity="0" result="BackgroundImageFix"/>
<feBlend mode="normal" in="SourceGraphic" in2="BackgroundImageFix" result="shape"/>
<feGaussianBlur stdDeviation="50" result="effect1_foregroundBlur_0_22"/>
</filter>
<filter id="filter11_f_0_22" x="-110.389" y="-81.5208" width="502.5" height="455.642" filterUnits="userSpaceOnUse" color-interpolation-filters="sRGB">
<feFlood flood-opacity="0" result="BackgroundImageFix"/>
<feBlend mode="normal" in="SourceGraphic" in2="BackgroundImageFix" result="shape"/>
<feGaussianBlur stdDeviation="60" result="effect1_foregroundBlur_0_22"/>
</filter>
<filter id="filter12_f_0_22" x="-76.5542" y="-36.3823" width="423.088" height="490.961" filterUnits="userSpaceOnUse" color-interpolation-filters="sRGB">
<feFlood flood-opacity="0" result="BackgroundImageFix"/>
<feBlend mode="normal" in="SourceGraphic" in2="BackgroundImageFix" result="shape"/>
<feGaussianBlur stdDeviation="60" result="effect1_foregroundBlur_0_22"/>
</filter>
<filter id="filter13_f_0_22" x="-25.0126" y="-37.6242" width="507.366" height="454.006" filterUnits="userSpaceOnUse" color-interpolation-filters="sRGB">
<feFlood flood-opacity="0" result="BackgroundImageFix"/>
<feBlend mode="normal" in="SourceGraphic" in2="BackgroundImageFix" result="shape"/>
<feGaussianBlur stdDeviation="50" result="effect1_foregroundBlur_0_22"/>
</filter>
<filter id="filter14_f_0_22" x="-46.0575" y="-37.5891" width="323.651" height="322.796" filterUnits="userSpaceOnUse" color-interpolation-filters="sRGB">
<feFlood flood-opacity="0" result="BackgroundImageFix"/>
<feBlend mode="normal" in="SourceGraphic" in2="BackgroundImageFix" result="shape"/>
<feGaussianBlur stdDeviation="30" result="effect1_foregroundBlur_0_22"/>
</filter>
<filter id="filter15_f_0_22" x="64.9194" y="-181.659" width="705.84" height="674.502" filterUnits="userSpaceOnUse" color-interpolation-filters="sRGB">
<feFlood flood-opacity="0" result="BackgroundImageFix"/>
<feBlend mode="normal" in="SourceGraphic" in2="BackgroundImageFix" result="shape"/>
<feGaussianBlur stdDeviation="100" result="effect1_foregroundBlur_0_22"/>
</filter>
<filter id="filter16_f_0_22" x="234.996" y="-39.9319" width="418.923" height="400.92" filterUnits="userSpaceOnUse" color-interpolation-filters="sRGB">
<feFlood flood-opacity="0" result="BackgroundImageFix"/>
<feBlend mode="normal" in="SourceGraphic" in2="BackgroundImageFix" result="shape"/>
<feGaussianBlur stdDeviation="50" result="effect1_foregroundBlur_0_22"/>
</filter>
<filter id="filter17_f_0_22" x="262.448" y="-3.00613" width="342.035" height="301.979" filterUnits="userSpaceOnUse" color-interpolation-filters="sRGB">
<feFlood flood-opacity="0" result="BackgroundImageFix"/>
<feBlend mode="normal" in="SourceGraphic" in2="BackgroundImageFix" result="shape"/>
<feGaussianBlur stdDeviation="20" result="effect1_foregroundBlur_0_22"/>
</filter>
<filter id="filter18_f_0_22" x="84.7681" y="-42.5877" width="504.762" height="481.458" filterUnits="userSpaceOnUse" color-interpolation-filters="sRGB">
<feFlood flood-opacity="0" result="BackgroundImageFix"/>
<feBlend mode="normal" in="SourceGraphic" in2="BackgroundImageFix" result="shape"/>
<feGaussianBlur stdDeviation="50" result="effect1_foregroundBlur_0_22"/>
</filter>
<filter id="filter19_f_0_22" x="36.3223" y="-71.8924" width="586.205" height="557.987" filterUnits="userSpaceOnUse" color-interpolation-filters="sRGB">
<feFlood flood-opacity="0" result="BackgroundImageFix"/>
<feBlend mode="normal" in="SourceGraphic" in2="BackgroundImageFix" result="shape"/>
<feGaussianBlur stdDeviation="85" result="effect1_foregroundBlur_0_22"/>
</filter>
<filter id="filter20_f_0_22" x="252.816" y="239.838" width="408.958" height="419.462" filterUnits="userSpaceOnUse" color-interpolation-filters="sRGB">
<feFlood flood-opacity="0" result="BackgroundImageFix"/>
<feBlend mode="normal" in="SourceGraphic" in2="BackgroundImageFix" result="shape"/>
<feGaussianBlur stdDeviation="30" result="effect1_foregroundBlur_0_22"/>
</filter>
<filter id="filter21_f_0_22" x="-72.1455" y="167.625" width="501.697" height="515.756" filterUnits="userSpaceOnUse" color-interpolation-filters="sRGB">
<feFlood flood-opacity="0" result="BackgroundImageFix"/>
<feBlend mode="normal" in="SourceGraphic" in2="BackgroundImageFix" result="shape"/>
<feGaussianBlur stdDeviation="30" result="effect1_foregroundBlur_0_22"/>
</filter>
<filter id="filter22_f_0_22" x="24.4314" y="450.082" width="547.095" height="213.418" filterUnits="userSpaceOnUse" color-interpolation-filters="sRGB">
<feFlood flood-opacity="0" result="BackgroundImageFix"/>
<feBlend mode="normal" in="SourceGraphic" in2="BackgroundImageFix" result="shape"/>
<feGaussianBlur stdDeviation="25" result="effect1_foregroundBlur_0_22"/>
</filter>
<filter id="filter23_f_0_22" x="299.407" y="279.888" width="323.568" height="344.525" filterUnits="userSpaceOnUse" color-interpolation-filters="sRGB">
<feFlood flood-opacity="0" result="BackgroundImageFix"/>
<feBlend mode="normal" in="SourceGraphic" in2="BackgroundImageFix" result="shape"/>
<feGaussianBlur stdDeviation="10" result="effect1_foregroundBlur_0_22"/>
</filter>
<filter id="filter24_f_0_22" x="230.513" y="-73.5971" width="464.295" height="547.874" filterUnits="userSpaceOnUse" color-interpolation-filters="sRGB">
<feFlood flood-opacity="0" result="BackgroundImageFix"/>
<feBlend mode="normal" in="SourceGraphic" in2="BackgroundImageFix" result="shape"/>
<feGaussianBlur stdDeviation="50" result="effect1_foregroundBlur_0_22"/>
</filter>
<filter id="filter25_f_0_22" x="344.728" y="8.33862" width="289.637" height="495.451" filterUnits="userSpaceOnUse" color-interpolation-filters="sRGB">
<feFlood flood-opacity="0" result="BackgroundImageFix"/>
<feBlend mode="normal" in="SourceGraphic" in2="BackgroundImageFix" result="shape"/>
<feGaussianBlur stdDeviation="30" result="effect1_foregroundBlur_0_22"/>
</filter>
<filter id="filter26_f_0_22" x="291.722" y="14.2294" width="313.119" height="382.098" filterUnits="userSpaceOnUse" color-interpolation-filters="sRGB">
<feFlood flood-opacity="0" result="BackgroundImageFix"/>
<feBlend mode="normal" in="SourceGraphic" in2="BackgroundImageFix" result="shape"/>
<feGaussianBlur stdDeviation="10" result="effect1_foregroundBlur_0_22"/>
</filter>
<filter id="filter27_f_0_22" x="282.256" y="-2.30148" width="327.353" height="358.264" filterUnits="userSpaceOnUse" color-interpolation-filters="sRGB">
<feFlood flood-opacity="0" result="BackgroundImageFix"/>
<feBlend mode="normal" in="SourceGraphic" in2="BackgroundImageFix" result="shape"/>
<feGaussianBlur stdDeviation="15" result="effect1_foregroundBlur_0_22"/>
</filter>
<filter id="filter28_f_0_22" x="365.505" y="46.2601" width="228.12" height="256.933" filterUnits="userSpaceOnUse" color-interpolation-filters="sRGB">
<feFlood flood-opacity="0" result="BackgroundImageFix"/>
<feBlend mode="normal" in="SourceGraphic" in2="BackgroundImageFix" result="shape"/>
<feGaussianBlur stdDeviation="10" result="effect1_foregroundBlur_0_22"/>
</filter>
<filter id="filter29_f_0_22" x="-1.38281" y="-2" width="612.159" height="612.159" filterUnits="userSpaceOnUse" color-interpolation-filters="sRGB">
<feFlood flood-opacity="0" result="BackgroundImageFix"/>
<feBlend mode="normal" in="SourceGraphic" in2="BackgroundImageFix" result="shape"/>
<feGaussianBlur stdDeviation="1" result="effect1_foregroundBlur_0_22"/>
</filter>
<filter id="filter30_f_0_22" x="-94.3223" y="-94.9403" width="798.039" height="798.039" filterUnits="userSpaceOnUse" color-interpolation-filters="sRGB">
<feFlood flood-opacity="0" result="BackgroundImageFix"/>
<feBlend mode="normal" in="SourceGraphic" in2="BackgroundImageFix" result="shape"/>
<feGaussianBlur stdDeviation="40" result="effect1_foregroundBlur_0_22"/>
</filter>
<filter id="filter31_f_0_22" x="-64.3223" y="-64.9403" width="738.039" height="738.039" filterUnits="userSpaceOnUse" color-interpolation-filters="sRGB">
<feFlood flood-opacity="0" result="BackgroundImageFix"/>
<feBlend mode="normal" in="SourceGraphic" in2="BackgroundImageFix" result="shape"/>
<feGaussianBlur stdDeviation="25" result="effect1_foregroundBlur_0_22"/>
</filter>
<filter id="filter32_f_0_22" x="-40.5338" y="225.331" width="408.028" height="424.916" filterUnits="userSpaceOnUse" color-interpolation-filters="sRGB">
<feFlood flood-opacity="0" result="BackgroundImageFix"/>
<feBlend mode="normal" in="SourceGraphic" in2="BackgroundImageFix" result="shape"/>
<feGaussianBlur stdDeviation="15" result="effect1_foregroundBlur_0_22"/>
</filter>
<filter id="filter33_f_0_22" x="-36.0801" y="-34.9403" width="678.039" height="678.039" filterUnits="userSpaceOnUse" color-interpolation-filters="sRGB">
<feFlood flood-opacity="0" result="BackgroundImageFix"/>
<feBlend mode="normal" in="SourceGraphic" in2="BackgroundImageFix" result="shape"/>
<feGaussianBlur stdDeviation="10" result="effect1_foregroundBlur_0_22"/>
</filter>
<linearGradient id="paint0_linear_0_22" x1="286.468" y1="83.3102" x2="63.9813" y2="385.058" gradientUnits="userSpaceOnUse">
<stop stop-color="#A1A6F7"/>
<stop offset="1" stop-color="#A1A6F7" stop-opacity="0"/>
</linearGradient>
<linearGradient id="paint1_linear_0_22" x1="-76.7433" y1="179.362" x2="303.343" y2="705.973" gradientUnits="userSpaceOnUse">
<stop stop-color="#524ECB"/>
<stop offset="1" stop-color="#9F9DE2"/>
</linearGradient>
<linearGradient id="paint2_linear_0_22" x1="533.526" y1="142.83" x2="438.992" y2="201.38" gradientUnits="userSpaceOnUse">
<stop stop-color="white"/>
<stop offset="1" stop-color="white" stop-opacity="0"/>
</linearGradient>
<linearGradient id="paint3_linear_0_22" x1="588.104" y1="317.99" x2="335.194" y2="56.3526" gradientUnits="userSpaceOnUse">
<stop stop-color="white"/>
<stop offset="0.735428" stop-color="white"/>
<stop offset="1" stop-color="white" stop-opacity="0"/>
</linearGradient>
<linearGradient id="paint4_linear_0_22" x1="588.103" y1="317.99" x2="335.193" y2="56.3526" gradientUnits="userSpaceOnUse">
<stop stop-color="white"/>
<stop offset="0.735428" stop-color="white"/>
<stop offset="1" stop-color="white" stop-opacity="0"/>
</linearGradient>
<linearGradient id="paint5_linear_0_22" x1="135.519" y1="-39.1085" x2="429.932" y2="627.493" gradientUnits="userSpaceOnUse">
<stop stop-color="#B48AFA" stop-opacity="0.6"/>
<stop offset="0.348958" stop-color="#516685" stop-opacity="0.1"/>
<stop offset="0.71875" stop-color="#587092" stop-opacity="0.1"/>
<stop offset="1" stop-color="#9686DF"/>
</linearGradient>
<radialGradient id="paint6_radial_0_22" cx="0" cy="0" r="1" gradientUnits="userSpaceOnUse" gradientTransform="translate(304.697 226.169) rotate(90) scale(396.931)">
<stop stop-color="white" stop-opacity="0"/>
<stop offset="1" stop-color="white"/>
</radialGradient>
<linearGradient id="paint7_linear_0_22" x1="102.564" y1="24.6076" x2="483.102" y2="592.34" gradientUnits="userSpaceOnUse">
<stop stop-color="#DAB3F5"/>
<stop offset="1" stop-color="#F4DCF6"/>
</linearGradient>
<linearGradient id="paint8_linear_0_22" x1="-92.3459" y1="215.8" x2="296.784" y2="755.402" gradientUnits="userSpaceOnUse">
<stop stop-color="#524ECB"/>
<stop offset="1" stop-color="#9F9DE2"/>
</linearGradient>
</defs>
</svg>
